<?xml version="1.0" encoding="UTF-8"?>
<svg width="36px" height="36px" viewBox="0 0 36 36" version="1.1" xmlns="http://www.w3.org/2000/svg" xmlns:xlink="http://www.w3.org/1999/xlink">
    <!-- Generator: Sketch 45.1 (43504) - http://www.bohemiancoding.com/sketch -->
    <title>Combined Shape</title>
    <desc>Created with Sketch.</desc>
    <defs></defs>
    <g id="Page-1" stroke="none" stroke-width="1" fill="none" fill-rule="evenodd">
        <path d="M29.9183911,6.07449696 C25.9136365,2.16206016 20.0616489,0.307729205 14.201462,1.66065995 C5.05325664,3.77268958 -0.650690791,12.9009136 1.46133883,22.049119 C3.57336846,31.1973243 12.7015925,36.9012718 21.8497979,34.7892422 C28.0516128,33.3574404 32.6704987,28.7011012 34.3443806,23 L32.1940743,23 C30.5702098,27.6965754 26.6381608,31.4780642 21.439012,32.6783823 C13.4072012,34.5326719 5.39293342,29.5248016 3.5386438,21.4929908 C1.68435418,13.4611801 6.69222452,5.44691225 14.7240353,3.59262263 C19.7224184,2.43865496 24.7140074,3.94230792 28.218369,7.17850418 L26.5317974,8.2737766 L35.0388385,15.8652357 L31.5638208,5.00594239 L29.9183911,6.07449696 Z" id="Combined-Shape" stroke="#000000" fill="#171717"></path>
    </g>
</svg>